<svg width="33" height="33" viewBox="0 0 33 33" fill="none" xmlns="http://www.w3.org/2000/svg">
<circle cx="16.5" cy="16.5" r="16.5" fill="#D9D9D9"/>
<circle cx="16.5" cy="16.5" r="16.5" fill="url(#paint0_linear_390_17)"/>
<g clip-path="url(#clip0_390_17)">
<path d="M9.75 7.375C11.6742 7.37467 13.5319 8.07885 14.9724 9.35457C16.4129 10.6303 17.0632 13.3399 17.2955 15.25C18.029 14.4823 19.184 12.9209 20.1606 12.5042C21.1372 12.0875 22.1882 11.8734 23.25 11.875H26.625C26.9234 11.875 27.2095 11.9935 27.4205 12.2045C27.6315 12.4155 27.75 12.7016 27.75 13V14.125C27.75 16.2136 26.9203 18.2166 25.4435 19.6935C23.9666 21.1703 21.9636 22 19.875 22H17.625V26.5C17.625 26.7984 17.5065 27.0845 17.2955 27.2955C17.0845 27.5065 16.7984 27.625 16.5 27.625C16.2016 27.625 15.9155 27.5065 15.7045 27.2955C15.4935 27.0845 15.375 26.7984 15.375 26.5V18.625H13.125C11.0364 18.625 9.03338 17.7953 7.55653 16.3185C6.07969 14.8416 5.25 12.8386 5.25 10.75V8.5C5.25 8.20163 5.36853 7.91548 5.5795 7.7045C5.79048 7.49353 6.07663 7.375 6.375 7.375H9.75Z" fill="white"/>
</g>
<defs>
<linearGradient id="paint0_linear_390_17" x1="0" y1="16.5" x2="33" y2="16.5" gradientUnits="userSpaceOnUse">
<stop stop-color="#4BCEA6"/>
<stop offset="1" stop-color="#A9DD97"/>
</linearGradient>
<clipPath id="clip0_390_17">
<rect width="27" height="27" fill="white" transform="translate(3 4)"/>
</clipPath>
</defs>
</svg>
