<svg width="1440" height="241" viewBox="0 0 1440 241" fill="none" xmlns="http://www.w3.org/2000/svg">
<path fill-rule="evenodd" clip-rule="evenodd" d="M-20 133.889L42.9583 116.037C105.917 98.1852 231.833 62.4815 357.75 66.9444C483.667 71.4074 609.583 116.037 735.5 111.574C861.417 107.111 987.333 53.5556 1113.25 26.7778C1239.17 0 1365.08 0 1428.04 0H1491V241H1428.04C1365.08 241 1239.17 241 1113.25 241C987.333 241 861.417 241 735.5 241C609.583 241 483.667 241 357.75 241C231.833 241 105.917 241 42.9583 241H-20V133.889Z" fill="url(#paint0_linear_113_512)"/>
<defs>
<linearGradient id="paint0_linear_113_512" x1="-20" y1="120.5" x2="1491" y2="120.5" gradientUnits="userSpaceOnUse">
<stop stop-color="#4BCEA6"/>
<stop offset="1" stop-color="#A9DD97"/>
</linearGradient>
</defs>
</svg>
