<svg width="1511" height="241" viewBox="0 0 1511 241" fill="none" xmlns="http://www.w3.org/2000/svg">
<path fill-rule="evenodd" clip-rule="evenodd" d="M0 133.889L62.9583 116.037C125.917 98.1852 251.833 62.4815 377.75 66.9444C503.667 71.4074 629.583 116.037 755.5 111.574C881.417 107.111 1007.33 53.5556 1133.25 26.7778C1259.17 0 1385.08 0 1448.04 0H1511V241H1448.04C1385.08 241 1259.17 241 1133.25 241C1007.33 241 881.417 241 755.5 241C629.583 241 503.667 241 377.75 241C251.833 241 125.917 241 62.9583 241H0V133.889Z" fill="url(#paint0_linear_345_7)"/>
<defs>
<linearGradient id="paint0_linear_345_7" x1="0" y1="120.5" x2="1511" y2="120.5" gradientUnits="userSpaceOnUse">
<stop stop-color="#4BCEA6"/>
<stop offset="1" stop-color="#A9DD97"/>
</linearGradient>
</defs>
</svg>
